<?xml version="1.0" encoding="UTF-8"?>
<svg xmlns="http://www.w3.org/2000/svg" xmlns:xlink="http://www.w3.org/1999/xlink" width="50pt" height="50pt" viewBox="0 0 50 50" version="1.1">
<g id="surface4672580">
<path style=" stroke:none;fill-rule:nonzero;fill:rgb(65.098039%,96.862745%,56.078431%);fill-opacity:1;" d="M 25 47.8125 C 22.371094 44.84375 9.375 29.535156 9.375 17.5 C 9.375 8.882812 16.382812 1.875 25 1.875 C 33.617188 1.875 40.625 8.882812 40.625 17.5 C 40.625 29.476562 27.628906 44.832031 25 47.8125 Z M 25 47.8125 "/>
<path style=" stroke:none;fill-rule:nonzero;fill:rgb(18.039216%,80%,44.313725%);fill-opacity:1;" d="M 25 2.5 C 33.269531 2.5 40 9.230469 40 17.5 C 40 28.664062 28.386719 42.9375 25 46.863281 C 21.609375 42.949219 10 28.722656 10 17.5 C 10 9.230469 16.730469 2.5 25 2.5 M 25 1.25 C 16.023438 1.25 8.75 8.523438 8.75 17.5 C 8.75 31.226562 25 48.75 25 48.75 C 25 48.75 41.25 31.15625 41.25 17.5 C 41.25 8.523438 33.976562 1.25 25 1.25 Z M 25 1.25 "/>
<path style=" stroke:none;fill-rule:nonzero;fill:rgb(94.901961%,98.039216%,100%);fill-opacity:1;" d="M 25 24.375 C 21.210938 24.375 18.125 21.292969 18.125 17.5 C 18.125 13.707031 21.210938 10.625 25 10.625 C 28.789062 10.625 31.875 13.707031 31.875 17.5 C 31.875 21.292969 28.789062 24.375 25 24.375 Z M 25 24.375 "/>
<path style=" stroke:none;fill-rule:nonzero;fill:rgb(18.039216%,80%,44.313725%);fill-opacity:1;" d="M 25 11.25 C 28.453125 11.25 31.25 14.046875 31.25 17.5 C 31.25 20.953125 28.453125 23.75 25 23.75 C 21.546875 23.75 18.75 20.953125 18.75 17.5 C 18.75 14.046875 21.546875 11.25 25 11.25 M 25 10 C 20.863281 10 17.5 13.363281 17.5 17.5 C 17.5 21.636719 20.863281 25 25 25 C 29.136719 25 32.5 21.636719 32.5 17.5 C 32.5 13.363281 29.136719 10 25 10 Z M 25 10 "/>
</g>
</svg>
