<?xml version="1.0" encoding="UTF-8"?>
<svg xmlns="http://www.w3.org/2000/svg" xmlns:xlink="http://www.w3.org/1999/xlink" width="20pt" height="20pt" viewBox="0 0 20 20" version="1.1">
<g id="surface4673954">
<path style=" stroke:none;fill-rule:nonzero;fill:rgb(96.862745%,56.078431%,56.078431%);fill-opacity:1;" d="M 10 19.125 C 8.949219 17.9375 3.75 11.8125 3.75 7 C 3.75 3.554688 6.554688 0.75 10 0.75 C 13.445312 0.75 16.25 3.554688 16.25 7 C 16.25 11.789062 11.050781 17.933594 10 19.125 Z M 10 19.125 "/>
<path style=" stroke:none;fill-rule:nonzero;fill:rgb(78.039216%,26.27451%,26.27451%);fill-opacity:1;" d="M 10 1 C 13.308594 1 16 3.691406 16 7 C 16 11.464844 11.355469 17.175781 10 18.746094 C 8.644531 17.179688 4 11.488281 4 7 C 4 3.691406 6.691406 1 10 1 M 10 0.5 C 6.410156 0.5 3.5 3.410156 3.5 7 C 3.5 12.492188 10 19.5 10 19.5 C 10 19.5 16.5 12.464844 16.5 7 C 16.5 3.410156 13.589844 0.5 10 0.5 Z M 10 0.5 "/>
<path style=" stroke:none;fill-rule:nonzero;fill:rgb(94.901961%,98.039216%,100%);fill-opacity:1;" d="M 10 9.75 C 8.484375 9.75 7.25 8.515625 7.25 7 C 7.25 5.484375 8.484375 4.25 10 4.25 C 11.515625 4.25 12.75 5.484375 12.75 7 C 12.75 8.515625 11.515625 9.75 10 9.75 Z M 10 9.75 "/>
<path style=" stroke:none;fill-rule:nonzero;fill:rgb(78.039216%,26.27451%,26.27451%);fill-opacity:1;" d="M 10 4.5 C 11.378906 4.5 12.5 5.621094 12.5 7 C 12.5 8.378906 11.378906 9.5 10 9.5 C 8.621094 9.5 7.5 8.378906 7.5 7 C 7.5 5.621094 8.621094 4.5 10 4.5 M 10 4 C 8.347656 4 7 5.347656 7 7 C 7 8.652344 8.347656 10 10 10 C 11.652344 10 13 8.652344 13 7 C 13 5.347656 11.652344 4 10 4 Z M 10 4 "/>
</g>
</svg>
